<svg width="166" height="149" viewBox="0 0 166 149" fill="none" xmlns="http://www.w3.org/2000/svg">
<mask id="path-1-inside-1_10_107" fill="white">
<path fill-rule="evenodd" clip-rule="evenodd" d="M132.351 49.3514C132.351 50.1996 132.33 51.0429 132.288 51.8807C127.373 50.24 122.115 49.3514 116.649 49.3514C103.645 49.3514 91.8154 54.3809 83 62.6009C74.1846 54.3809 62.3553 49.3514 49.3514 49.3514C43.8853 49.3514 38.6267 50.24 33.7123 51.8807C33.6701 51.0429 33.6486 50.1996 33.6486 49.3514C33.6486 22.0954 55.744 0 83 0C110.256 0 132.351 22.0954 132.351 49.3514ZM67.361 96.1734C48.533 89.8875 34.7565 72.5629 33.7123 51.8807C14.1217 58.4212 0 76.9128 0 98.7027C0 125.959 22.0954 148.054 49.3514 148.054C62.3553 148.054 74.1846 143.025 83 134.805C91.8154 143.025 103.645 148.054 116.649 148.054C143.905 148.054 166 125.959 166 98.7027C166 76.9128 151.878 58.4212 132.288 51.8807C131.244 72.5629 117.467 89.8875 98.639 96.1733C97.9707 82.9357 92.0864 71.0735 83 62.6009C73.9136 71.0735 68.0293 82.9357 67.361 96.1734ZM67.361 96.1734C72.2754 97.8141 77.5339 98.7027 83 98.7027C88.4661 98.7027 93.7246 97.8141 98.639 96.1733C98.6813 97.0111 98.7027 97.8544 98.7027 98.7027C98.7027 112.955 92.6614 125.796 83 134.805C73.3386 125.796 67.2973 112.955 67.2973 98.7027C67.2973 97.8544 67.3187 97.0111 67.361 96.1734Z"/>
</mask>
<path d="M141.276 52.3345C141.326 51.3456 141.351 50.351 141.351 49.3514H123.351C123.351 50.0483 123.334 50.7403 123.299 51.4269L141.276 52.3345ZM135.138 43.3439C129.316 41.4003 123.096 40.3514 116.649 40.3514V58.3514C121.134 58.3514 125.43 59.0797 129.438 60.4175L135.138 43.3439ZM116.649 40.3514C101.278 40.3514 87.2778 46.3065 76.8622 56.0185L89.1378 69.1832C96.353 62.4554 106.012 58.3514 116.649 58.3514V40.3514ZM49.3514 58.3514C59.9884 58.3514 69.647 62.4554 76.8622 69.1832L89.1378 56.0185C78.7222 46.3065 64.7223 40.3514 49.3514 40.3514V58.3514ZM36.5624 60.4175C40.5696 59.0797 44.8663 58.3514 49.3514 58.3514V40.3514C42.9042 40.3514 36.6838 41.4003 30.8623 43.3439L36.5624 60.4175ZM24.6486 49.3514C24.6486 50.3511 24.6739 51.3456 24.7238 52.3345L42.7009 51.4269C42.6662 50.7402 42.6486 50.0482 42.6486 49.3514H24.6486ZM83 -9C50.7734 -9 24.6486 17.1248 24.6486 49.3514H42.6486C42.6486 27.0659 60.7146 9 83 9V-9ZM141.351 49.3514C141.351 17.1248 115.227 -9 83 -9V9C105.285 9 123.351 27.0659 123.351 49.3514H141.351ZM24.7238 52.3345C25.9595 76.8113 42.2573 97.2806 64.5109 104.71L70.2111 87.6366C54.8087 82.4944 43.5535 68.3146 42.7009 51.4269L24.7238 52.3345ZM9 98.7027C9 80.9004 20.5343 65.7686 36.5624 60.4175L30.8623 43.3439C7.70919 51.0737 -9 72.9252 -9 98.7027H9ZM49.3514 139.054C27.0659 139.054 9 120.988 9 98.7027H-9C-9 130.929 17.1248 157.054 49.3514 157.054V139.054ZM76.8622 128.222C69.647 134.95 59.9884 139.054 49.3514 139.054V157.054C64.7223 157.054 78.7222 151.099 89.1378 141.387L76.8622 128.222ZM76.8622 141.387C87.2778 151.099 101.278 157.054 116.649 157.054V139.054C106.012 139.054 96.353 134.95 89.1378 128.222L76.8622 141.387ZM116.649 157.054C148.875 157.054 175 130.929 175 98.7027H157C157 120.988 138.934 139.054 116.649 139.054V157.054ZM175 98.7027C175 72.9252 158.291 51.0737 135.138 43.3439L129.438 60.4175C145.466 65.7686 157 80.9004 157 98.7027H175ZM101.489 104.71C123.743 97.2806 140.041 76.8113 141.276 52.3345L123.299 51.4269C122.447 68.3146 111.191 82.4944 95.7889 87.6365L101.489 104.71ZM76.8622 69.1832C84.3052 76.1235 89.1046 85.815 89.6505 96.6271L107.628 95.7196C106.837 80.0563 99.8676 66.0235 89.1378 56.0185L76.8622 69.1832ZM76.8622 56.0185C66.1324 66.0235 59.1632 80.0563 58.3724 95.7196L76.3495 96.6271C76.8954 85.815 81.6948 76.1235 89.1378 69.1832L76.8622 56.0185ZM64.5109 104.71C70.3325 106.654 76.5529 107.703 83 107.703V89.7027C78.515 89.7027 74.2183 88.9744 70.2111 87.6366L64.5109 104.71ZM83 107.703C89.4471 107.703 95.6675 106.654 101.489 104.71L95.7889 87.6365C91.7817 88.9744 87.485 89.7027 83 89.7027V107.703ZM89.6505 96.6272C89.6851 97.3138 89.7027 98.0058 89.7027 98.7027H107.703C107.703 97.703 107.677 96.7084 107.628 95.7195L89.6505 96.6272ZM89.7027 98.7027C89.7027 110.356 84.7745 120.844 76.8622 128.222L89.1378 141.387C100.548 130.747 107.703 115.553 107.703 98.7027H89.7027ZM58.2973 98.7027C58.2973 115.553 65.4516 130.747 76.8622 141.387L89.1378 128.222C81.2255 120.844 76.2973 110.356 76.2973 98.7027H58.2973ZM58.3724 95.7195C58.3225 96.7084 58.2973 97.703 58.2973 98.7027H76.2973C76.2973 98.0058 76.3149 97.3138 76.3495 96.6272L58.3724 95.7195Z" fill="#3C3B40" mask="url(#path-1-inside-1_10_107)"/>
</svg>
