<svg width="74" height="66" viewBox="0 0 74 66" fill="none" xmlns="http://www.w3.org/2000/svg">
<mask id="path-1-inside-1_9_89" fill="white">
<path fill-rule="evenodd" clip-rule="evenodd" d="M59 22C59 22.3782 58.9905 22.7541 58.9716 23.1275C56.7809 22.3961 54.4367 22 52 22C46.203 22 40.9298 24.2421 37 27.9064C33.0702 24.2421 27.797 22 22 22C19.5633 22 17.2191 22.3961 15.0284 23.1275C15.0095 22.7541 15 22.3782 15 22C15 9.84974 24.8497 0 37 0C49.1503 0 59 9.84974 59 22ZM30.0284 42.8725C21.6352 40.0703 15.4938 32.3473 15.0284 23.1275C6.29523 26.0432 0 34.2864 0 44C0 56.1503 9.84974 66 22 66C27.797 66 33.0702 63.7579 37 60.0936C40.9298 63.7579 46.203 66 52 66C64.1503 66 74 56.1503 74 44C74 34.2864 67.7048 26.0432 58.9716 23.1275C58.5062 32.3473 52.3648 40.0703 43.9716 42.8725C43.6737 36.9713 41.0505 31.6834 37 27.9064C32.9495 31.6834 30.3263 36.9713 30.0284 42.8725ZM30.0284 42.8725C32.2191 43.6039 34.5633 44 37 44C39.4367 44 41.7809 43.6039 43.9716 42.8725C43.9905 43.2459 44 43.6218 44 44C44 50.3533 41.3069 56.0776 37 60.0936C32.6931 56.0776 30 50.3533 30 44C30 43.6218 30.0095 43.2459 30.0284 42.8725Z"/>
</mask>
<path d="M67.9602 23.5813C67.9866 23.0568 68 22.5296 68 22H50C50 22.2267 49.9943 22.4513 49.983 22.6738L67.9602 23.5813ZM61.8217 14.5907C58.7238 13.5565 55.4177 13 52 13V31C53.4556 31 54.838 31.2358 56.1215 31.6643L61.8217 14.5907ZM52 13C43.8361 13 36.3921 16.1677 30.8622 21.324L43.1378 34.4888C45.4674 32.3165 48.57 31 52 31V13ZM22 31C25.43 31 28.5326 32.3165 30.8622 34.4888L43.1378 21.324C37.6079 16.1677 30.1639 13 22 13V31ZM17.8785 31.6643C19.162 31.2358 20.5444 31 22 31V13C18.5823 13 15.2762 13.5565 12.1783 14.5907L17.8785 31.6643ZM6 22C6 22.5296 6.01336 23.0568 6.03984 23.5813L24.0169 22.6738C24.0057 22.4514 24 22.2267 24 22H6ZM37 -9C19.8792 -9 6 4.87917 6 22H24C24 14.8203 29.8203 9 37 9V-9ZM68 22C68 4.87917 54.1208 -9 37 -9V9C44.1797 9 50 14.8203 50 22H68ZM6.03984 23.5813C6.69686 36.5957 15.3595 47.4635 27.1783 51.4093L32.8785 34.3356C27.9109 32.6772 24.2908 28.099 24.0169 22.6738L6.03984 23.5813ZM9 44C9 38.274 12.7078 33.3906 17.8785 31.6644L12.1783 14.5907C-0.117311 18.6957 -9 30.2988 -9 44H9ZM22 57C14.8203 57 9 51.1797 9 44H-9C-9 61.1208 4.87917 75 22 75V57ZM30.8622 53.5112C28.5326 55.6835 25.43 57 22 57V75C30.1639 75 37.6079 71.8324 43.1378 66.676L30.8622 53.5112ZM30.8622 66.676C36.3921 71.8324 43.8361 75 52 75V57C48.57 57 45.4674 55.6835 43.1378 53.5112L30.8622 66.676ZM52 75C69.1208 75 83 61.1208 83 44H65C65 51.1797 59.1797 57 52 57V75ZM83 44C83 30.2988 74.1173 18.6957 61.8217 14.5907L56.1215 31.6644C61.2922 33.3906 65 38.274 65 44H83ZM46.8217 51.4093C58.6405 47.4635 67.3031 36.5957 67.9602 23.5813L49.9831 22.6738C49.7092 28.099 46.0891 32.6772 41.1215 34.3356L46.8217 51.4093ZM30.8622 34.4888C33.2694 36.7333 34.8076 39.8507 34.9831 43.3262L52.9602 42.4187C52.5398 34.0919 48.8317 26.6334 43.1378 21.324L30.8622 34.4888ZM30.8622 21.324C25.1683 26.6334 21.4602 34.0919 21.0398 42.4187L39.0169 43.3262C39.1924 39.8507 40.7306 36.7333 43.1378 34.4888L30.8622 21.324ZM27.1783 51.4093C30.2763 52.4435 33.5823 53 37 53V35C35.5444 35 34.162 34.7642 32.8785 34.3357L27.1783 51.4093ZM37 53C40.4177 53 43.7238 52.4435 46.8217 51.4093L41.1215 34.3357C39.838 34.7642 38.4556 35 37 35V53ZM34.983 43.3262C34.9943 43.5487 35 43.7733 35 44H53C53 43.4704 52.9866 42.9432 52.9602 42.4187L34.983 43.3262ZM35 44C35 47.7546 33.42 51.1263 30.8622 53.5112L43.1378 66.676C49.1938 61.029 53 52.952 53 44H35ZM21 44C21 52.952 24.8062 61.029 30.8622 66.676L43.1378 53.5112C40.58 51.1263 39 47.7546 39 44H21ZM21.0398 42.4187C21.0134 42.9432 21 43.4704 21 44H39C39 43.7733 39.0057 43.5487 39.0169 43.3262L21.0398 42.4187Z" fill="#3C3B40" mask="url(#path-1-inside-1_9_89)"/>
</svg>
