<svg width="22" height="20" viewBox="0 0 22 20" fill="none" xmlns="http://www.w3.org/2000/svg">
<mask id="path-1-inside-1_17_234" fill="white">
<path fill-rule="evenodd" clip-rule="evenodd" d="M17.5405 6.54054C17.5405 6.65297 17.5377 6.76473 17.5321 6.87576C16.8808 6.65832 16.1839 6.54054 15.4595 6.54054C13.736 6.54054 12.1683 7.20711 11 8.2965C9.83169 7.20711 8.26396 6.54054 6.54054 6.54054C5.81612 6.54054 5.1192 6.65832 4.4679 6.87576C4.4623 6.76473 4.45946 6.65297 4.45946 6.54054C4.45946 2.9283 7.38776 0 11 0C14.6122 0 17.5405 2.9283 17.5405 6.54054ZM8.92736 12.7459C6.43209 11.9128 4.60628 9.61677 4.4679 6.87576C1.87155 7.74257 0 10.1933 0 13.0811C0 16.6933 2.9283 19.6216 6.54054 19.6216C8.26396 19.6216 9.83169 18.9551 11 17.8657C12.1683 18.9551 13.736 19.6216 15.4595 19.6216C19.0717 19.6216 22 16.6933 22 13.0811C22 10.1933 20.1284 7.74257 17.5321 6.87576C17.3937 9.61677 15.5679 11.9128 13.0726 12.7459C12.9841 10.9915 12.2042 9.41938 11 8.2965C9.79578 9.41938 9.01593 10.9915 8.92736 12.7459ZM8.92736 12.7459C9.57867 12.9633 10.2756 13.0811 11 13.0811C11.7244 13.0811 12.4213 12.9633 13.0726 12.7459C13.0782 12.8569 13.0811 12.9687 13.0811 13.0811C13.0811 14.9699 12.2804 16.6717 11 17.8657C9.71957 16.6717 8.91892 14.9699 8.91892 13.0811C8.91892 12.9687 8.92176 12.8569 8.92736 12.7459Z"/>
</mask>
<path d="M26.5207 7.32957C26.5339 7.06744 26.5405 6.80436 26.5405 6.54054H8.54054C8.54054 6.50157 8.54152 6.46202 8.54355 6.42195L26.5207 7.32957ZM20.3822 -1.66105C18.8237 -2.18135 17.1649 -2.45946 15.4595 -2.45946V15.5405C15.2028 15.5405 14.9379 15.498 14.682 15.4126L20.3822 -1.66105ZM15.4595 -2.45946C11.3691 -2.45946 7.63067 -0.867331 4.86222 1.71412L17.1378 14.8789C16.7059 15.2815 16.103 15.5405 15.4595 15.5405V-2.45946ZM6.54054 15.5405C5.89704 15.5405 5.29406 15.2815 4.86222 14.8789L17.1378 1.71412C14.3693 -0.867328 10.6309 -2.45946 6.54054 -2.45946V15.5405ZM7.31798 15.4126C7.06212 15.498 6.79718 15.5405 6.54054 15.5405V-2.45946C4.83506 -2.45946 3.17629 -2.18135 1.61783 -1.66105L7.31798 15.4126ZM-4.54054 6.54054C-4.54054 6.80438 -4.53388 7.06745 -4.52065 7.32953L13.4565 6.42199C13.4585 6.462 13.4595 6.50155 13.4595 6.54054H-4.54054ZM11 -9C2.4172 -9 -4.54054 -2.04226 -4.54054 6.54054H13.4595C13.4595 7.89886 12.3583 9 11 9V-9ZM26.5405 6.54054C26.5405 -2.04226 19.5828 -9 11 -9V9C9.64168 9 8.54054 7.89886 8.54054 6.54054H26.5405ZM-4.52065 7.32954C-4.19071 13.8651 0.156398 19.3059 6.07728 21.2827L11.7774 4.20906C12.7078 4.51966 13.4033 5.3684 13.4565 6.42198L-4.52065 7.32954ZM9 13.0811C9 14.1809 8.28409 15.09 7.31798 15.4126L1.61782 -1.66105C-4.54098 0.395115 -9 6.20565 -9 13.0811H9ZM6.54054 10.6216C7.89886 10.6216 9 11.7228 9 13.0811H-9C-9 21.6639 -2.04226 28.6216 6.54054 28.6216V10.6216ZM4.86222 11.2833C5.29406 10.8806 5.89704 10.6216 6.54054 10.6216V28.6216C10.6309 28.6216 14.3693 27.0295 17.1378 24.448L4.86222 11.2833ZM4.86222 24.448C7.63067 27.0295 11.3691 28.6216 15.4595 28.6216V10.6216C16.103 10.6216 16.7059 10.8806 17.1378 11.2833L4.86222 24.448ZM15.4595 28.6216C24.0423 28.6216 31 21.6639 31 13.0811H13C13 11.7228 14.1011 10.6216 15.4595 10.6216V28.6216ZM31 13.0811C31 6.20565 26.541 0.395115 20.3822 -1.66105L14.682 15.4126C13.7159 15.09 13 14.1809 13 13.0811H31ZM15.9227 21.2827C21.8436 19.3059 26.1907 13.8651 26.5207 7.32953L8.54355 6.42198C8.59673 5.3684 9.29222 4.51966 10.2226 4.20906L15.9227 21.2827ZM4.86223 14.8789C4.42303 14.4693 4.11797 13.8708 4.08409 13.1996L22.0612 12.2921C21.8502 8.1121 19.9854 4.36941 17.1378 1.71412L4.86223 14.8789ZM4.86222 1.71412C2.01459 4.36941 0.149831 8.11211 -0.0611915 12.2921L17.9159 13.1996C17.882 13.8708 17.577 14.4693 17.1378 14.8789L4.86222 1.71412ZM6.07729 21.2827C7.63577 21.803 9.29453 22.0811 11 22.0811V4.08108C11.2566 4.08108 11.5216 4.12363 11.7774 4.20906L6.07729 21.2827ZM11 22.0811C12.7055 22.0811 14.3642 21.803 15.9227 21.2827L10.2226 4.20906C10.4784 4.12363 10.7434 4.08108 11 4.08108V22.0811ZM4.08409 13.1997C4.08207 13.1597 4.08108 13.1201 4.08108 13.0811H22.0811C22.0811 12.8172 22.0744 12.5541 22.0612 12.2921L4.08409 13.1997ZM4.08108 13.0811C4.08108 12.3712 4.39349 11.7204 4.86222 11.2833L17.1378 24.448C20.1674 21.6231 22.0811 17.5686 22.0811 13.0811H4.08108ZM-0.0810814 13.0811C-0.0810814 17.5686 1.83262 21.6231 4.86222 24.448L17.1378 11.2833C17.6065 11.7204 17.9189 12.3712 17.9189 13.0811H-0.0810814ZM-0.06119 12.2921C-0.0744215 12.5541 -0.0810814 12.8172 -0.0810814 13.0811H17.9189C17.9189 13.1201 17.9179 13.1597 17.9159 13.1997L-0.06119 12.2921Z" fill="black" mask="url(#path-1-inside-1_17_234)"/>
</svg>
