<svg width="150" height="25" viewBox="0 0 150 25" fill="none" xmlns="http://www.w3.org/2000/svg">
<rect width="150" height="25" rx="12.5" fill="white"/>
<path d="M12.6953 17V9H15.8984C16.487 9 16.9779 9.08724 17.3711 9.26172C17.7643 9.4362 18.0599 9.67839 18.2578 9.98828C18.4557 10.2956 18.5547 10.6497 18.5547 11.0508C18.5547 11.3633 18.4922 11.638 18.3672 11.875C18.2422 12.1094 18.0703 12.3021 17.8516 12.4531C17.6354 12.6016 17.388 12.707 17.1094 12.7695V12.8477C17.4141 12.8607 17.6992 12.9466 17.9648 13.1055C18.2331 13.2643 18.4505 13.487 18.6172 13.7734C18.7839 14.0573 18.8672 14.3958 18.8672 14.7891C18.8672 15.2135 18.7617 15.5924 18.5508 15.9258C18.3424 16.2565 18.0339 16.5182 17.625 16.7109C17.2161 16.9036 16.7122 17 16.1133 17H12.6953ZM14.3867 15.6172H15.7656C16.237 15.6172 16.5807 15.5273 16.7969 15.3477C17.013 15.1654 17.1211 14.9232 17.1211 14.6211C17.1211 14.3997 17.0677 14.2044 16.9609 14.0352C16.8542 13.8659 16.7018 13.7331 16.5039 13.6367C16.3086 13.5404 16.0755 13.4922 15.8047 13.4922H14.3867V15.6172ZM14.3867 12.3477H15.6406C15.8724 12.3477 16.0781 12.3073 16.2578 12.2266C16.4401 12.1432 16.5833 12.026 16.6875 11.875C16.7943 11.724 16.8477 11.543 16.8477 11.332C16.8477 11.043 16.7448 10.8099 16.5391 10.6328C16.3359 10.4557 16.0469 10.3672 15.6719 10.3672H14.3867V12.3477ZM26.6592 9V17H25.1982L21.7178 11.9648H21.6592V17H19.9678V9H21.4521L24.9053 14.0312H24.9756V9H26.6592ZM30.9316 17.1094C30.3796 17.1094 29.8874 17.0078 29.4551 16.8047C29.0254 16.6016 28.6842 16.3216 28.4316 15.9648C28.179 15.6081 28.0475 15.1992 28.0371 14.7383H29.6777C29.696 15.0482 29.8262 15.2995 30.0684 15.4922C30.3105 15.6849 30.5983 15.7812 30.9316 15.7812C31.1973 15.7812 31.4316 15.7227 31.6348 15.6055C31.8405 15.4857 32.0007 15.3203 32.1152 15.1094C32.2324 14.8958 32.291 14.651 32.291 14.375C32.291 14.0937 32.2311 13.8464 32.1113 13.6328C31.9941 13.4193 31.8314 13.2526 31.623 13.1328C31.4147 13.013 31.1764 12.9518 30.9082 12.9492C30.6738 12.9492 30.446 12.9974 30.2246 13.0937C30.0059 13.1901 29.8353 13.3216 29.7129 13.4883L28.209 13.2188L28.5879 9H33.4785V10.3828H29.9824L29.7754 12.3867H29.8223C29.9629 12.1888 30.1751 12.0247 30.459 11.8945C30.7428 11.7643 31.0605 11.6992 31.4121 11.6992C31.8939 11.6992 32.3236 11.8125 32.7012 12.0391C33.0788 12.2656 33.377 12.5768 33.5957 12.9727C33.8145 13.3659 33.9225 13.819 33.9199 14.332C33.9225 14.8711 33.7975 15.3503 33.5449 15.7695C33.2949 16.1862 32.9447 16.5143 32.4941 16.7539C32.0462 16.9909 31.5254 17.1094 30.9316 17.1094ZM38.1699 17.1094C37.7585 17.1068 37.3613 17.0378 36.9785 16.9023C36.5983 16.7669 36.2572 16.5469 35.9551 16.2422C35.653 15.9375 35.4134 15.5339 35.2363 15.0312C35.0618 14.5286 34.9746 13.9115 34.9746 13.1797C34.9772 12.5078 35.054 11.9076 35.2051 11.3789C35.3587 10.8477 35.5775 10.3971 35.8613 10.0273C36.1478 9.65755 36.4902 9.3763 36.8887 9.18359C37.2871 8.98828 37.7337 8.89062 38.2285 8.89062C38.7624 8.89062 39.2337 8.99479 39.6426 9.20313C40.0514 9.40885 40.3796 9.6888 40.627 10.043C40.877 10.3971 41.028 10.7943 41.0801 11.2344H39.4121C39.347 10.9557 39.2103 10.737 39.002 10.5781C38.7936 10.4193 38.5358 10.3398 38.2285 10.3398C37.7077 10.3398 37.3118 10.5664 37.041 11.0195C36.7728 11.4727 36.6361 12.0885 36.6309 12.8672H36.6855C36.8053 12.6302 36.9668 12.4284 37.1699 12.2617C37.3757 12.0924 37.6087 11.9635 37.8691 11.875C38.1322 11.7839 38.4095 11.7383 38.7012 11.7383C39.1751 11.7383 39.597 11.8503 39.9668 12.0742C40.3366 12.2956 40.6283 12.6003 40.8418 12.9883C41.0553 13.3763 41.1621 13.8203 41.1621 14.3203C41.1621 14.862 41.0358 15.3437 40.7832 15.7656C40.5332 16.1875 40.1829 16.5182 39.7324 16.7578C39.2845 16.9948 38.7637 17.112 38.1699 17.1094ZM38.1621 15.7812C38.4225 15.7812 38.6556 15.7187 38.8613 15.5938C39.0671 15.4687 39.2285 15.2995 39.3457 15.0859C39.4629 14.8724 39.5215 14.6328 39.5215 14.3672C39.5215 14.1016 39.4629 13.8633 39.3457 13.6523C39.2311 13.4414 39.0723 13.2734 38.8691 13.1484C38.666 13.0234 38.4342 12.9609 38.1738 12.9609C37.9785 12.9609 37.7975 12.9974 37.6309 13.0703C37.4668 13.1432 37.3223 13.2448 37.1973 13.375C37.0749 13.5052 36.9785 13.6562 36.9082 13.8281C36.8379 13.9974 36.8027 14.1784 36.8027 14.3711C36.8027 14.6289 36.8613 14.8646 36.9785 15.0781C37.0983 15.2917 37.2598 15.4622 37.4629 15.5898C37.6686 15.7174 37.9017 15.7812 38.1621 15.7812ZM46.748 11.3008C46.7168 10.9857 46.5827 10.7409 46.3457 10.5664C46.1087 10.3919 45.7871 10.3047 45.3809 10.3047C45.1048 10.3047 44.8717 10.3437 44.6816 10.4219C44.4915 10.4974 44.3457 10.6029 44.2441 10.7383C44.1452 10.8737 44.0957 11.0273 44.0957 11.1992C44.0905 11.3424 44.1204 11.4674 44.1855 11.5742C44.2533 11.681 44.3457 11.7734 44.4629 11.8516C44.5801 11.9271 44.7155 11.9935 44.8691 12.0508C45.0228 12.1055 45.1868 12.1523 45.3613 12.1914L46.0801 12.3633C46.429 12.4414 46.7493 12.5456 47.041 12.6758C47.3327 12.806 47.5853 12.9661 47.7988 13.1562C48.0124 13.3464 48.1777 13.5703 48.2949 13.8281C48.4147 14.0859 48.4759 14.3815 48.4785 14.7148C48.4759 15.2044 48.3509 15.6289 48.1035 15.9883C47.8587 16.3451 47.5046 16.6224 47.041 16.8203C46.5801 17.0156 46.0241 17.1133 45.373 17.1133C44.7272 17.1133 44.1647 17.0143 43.6855 16.8164C43.209 16.6185 42.8366 16.3255 42.5684 15.9375C42.3027 15.5469 42.1634 15.0638 42.1504 14.4883H43.7871C43.8053 14.7565 43.8822 14.9805 44.0176 15.1602C44.1556 15.3372 44.3392 15.4714 44.5684 15.5625C44.8001 15.651 45.0618 15.6953 45.3535 15.6953C45.64 15.6953 45.8887 15.6536 46.0996 15.5703C46.3132 15.487 46.4785 15.3711 46.5957 15.2227C46.7129 15.0742 46.7715 14.9036 46.7715 14.7109C46.7715 14.5312 46.7181 14.3802 46.6113 14.2578C46.5072 14.1354 46.3535 14.0312 46.1504 13.9453C45.9499 13.8594 45.7038 13.7812 45.4121 13.7109L44.541 13.4922C43.8665 13.3281 43.334 13.0716 42.9434 12.7227C42.5527 12.3737 42.3587 11.9036 42.3613 11.3125C42.3587 10.8281 42.4876 10.4049 42.748 10.043C43.0111 9.68099 43.3717 9.39844 43.8301 9.19531C44.2884 8.99219 44.8092 8.89062 45.3926 8.89062C45.9863 8.89062 46.5046 8.99219 46.9473 9.19531C47.3926 9.39844 47.7389 9.68099 47.9863 10.043C48.2337 10.4049 48.3613 10.8242 48.3691 11.3008H46.748ZM52.4521 17H49.6162V9H52.4756C53.2803 9 53.973 9.16016 54.5537 9.48047C55.1344 9.79818 55.5811 10.2552 55.8936 10.8516C56.2087 11.4479 56.3662 12.1615 56.3662 12.9922C56.3662 13.8255 56.2087 14.5417 55.8936 15.1406C55.5811 15.7396 55.1318 16.1992 54.5459 16.5195C53.9626 16.8398 53.2646 17 52.4521 17ZM51.3076 15.5508H52.3818C52.8818 15.5508 53.3024 15.4622 53.6436 15.2852C53.9873 15.1055 54.2451 14.8281 54.417 14.4531C54.5915 14.0755 54.6787 13.5885 54.6787 12.9922C54.6787 12.401 54.5915 11.918 54.417 11.543C54.2451 11.168 53.9886 10.8919 53.6475 10.7148C53.3063 10.5378 52.8857 10.4492 52.3857 10.4492H51.3076V15.5508ZM57.6191 17V9H59.3105V12.3008H62.7441V9H64.4316V17H62.7441V13.6953H59.3105V17H57.6191ZM72.8848 11.8008H71.1738C71.1426 11.5794 71.0788 11.3828 70.9824 11.2109C70.8861 11.0365 70.7624 10.888 70.6113 10.7656C70.4603 10.6432 70.2858 10.5495 70.0879 10.4844C69.8926 10.4193 69.6803 10.3867 69.4512 10.3867C69.0371 10.3867 68.6764 10.4896 68.3691 10.6953C68.0618 10.8984 67.8236 11.1953 67.6543 11.5859C67.485 11.974 67.4004 12.4453 67.4004 13C67.4004 13.5703 67.485 14.0495 67.6543 14.4375C67.8262 14.8255 68.0658 15.1185 68.373 15.3164C68.6803 15.5143 69.0358 15.6133 69.4395 15.6133C69.666 15.6133 69.8757 15.5833 70.0684 15.5234C70.2637 15.4635 70.4368 15.3763 70.5879 15.2617C70.7389 15.1445 70.8639 15.0026 70.9629 14.8359C71.0645 14.6693 71.1348 14.4792 71.1738 14.2656L72.8848 14.2734C72.8405 14.6406 72.7298 14.9948 72.5527 15.3359C72.3783 15.6745 72.1426 15.9779 71.8457 16.2461C71.5514 16.5117 71.1999 16.7227 70.791 16.8789C70.3848 17.0326 69.9251 17.1094 69.4121 17.1094C68.6986 17.1094 68.0605 16.9479 67.498 16.625C66.9382 16.3021 66.4954 15.8346 66.1699 15.2227C65.847 14.6107 65.6855 13.8698 65.6855 13C65.6855 12.1276 65.8496 11.3854 66.1777 10.7734C66.5059 10.1615 66.9512 9.69531 67.5137 9.375C68.0762 9.05208 68.709 8.89062 69.4121 8.89062C69.8757 8.89062 70.3053 8.95573 70.7012 9.08594C71.0996 9.21615 71.4525 9.40625 71.7598 9.65625C72.0671 9.90365 72.3171 10.207 72.5098 10.5664C72.7051 10.9258 72.8301 11.3372 72.8848 11.8008ZM78.4375 11.3008C78.4063 10.9857 78.2721 10.7409 78.0352 10.5664C77.7982 10.3919 77.4766 10.3047 77.0703 10.3047C76.7943 10.3047 76.5612 10.3437 76.3711 10.4219C76.181 10.4974 76.0352 10.6029 75.9336 10.7383C75.8346 10.8737 75.7852 11.0273 75.7852 11.1992C75.7799 11.3424 75.8099 11.4674 75.875 11.5742C75.9427 11.681 76.0352 11.7734 76.1523 11.8516C76.2695 11.9271 76.4049 11.9935 76.5586 12.0508C76.7122 12.1055 76.8763 12.1523 77.0508 12.1914L77.7695 12.3633C78.1185 12.4414 78.4388 12.5456 78.7305 12.6758C79.0221 12.806 79.2747 12.9661 79.4883 13.1562C79.7018 13.3464 79.8672 13.5703 79.9844 13.8281C80.1042 14.0859 80.1654 14.3815 80.168 14.7148C80.1654 15.2044 80.0404 15.6289 79.793 15.9883C79.5482 16.3451 79.194 16.6224 78.7305 16.8203C78.2695 17.0156 77.7135 17.1133 77.0625 17.1133C76.4167 17.1133 75.8542 17.0143 75.375 16.8164C74.8984 16.6185 74.526 16.3255 74.2578 15.9375C73.9922 15.5469 73.8529 15.0638 73.8398 14.4883H75.4766C75.4948 14.7565 75.5716 14.9805 75.707 15.1602C75.8451 15.3372 76.0286 15.4714 76.2578 15.5625C76.4896 15.651 76.7513 15.6953 77.043 15.6953C77.3294 15.6953 77.5781 15.6536 77.7891 15.5703C78.0026 15.487 78.168 15.3711 78.2852 15.2227C78.4023 15.0742 78.4609 14.9036 78.4609 14.7109C78.4609 14.5312 78.4076 14.3802 78.3008 14.2578C78.1966 14.1354 78.043 14.0312 77.8398 13.9453C77.6393 13.8594 77.3932 13.7812 77.1016 13.7109L76.2305 13.4922C75.556 13.3281 75.0234 13.0716 74.6328 12.7227C74.2422 12.3737 74.0482 11.9036 74.0508 11.3125C74.0482 10.8281 74.1771 10.4049 74.4375 10.043C74.7005 9.68099 75.0612 9.39844 75.5195 9.19531C75.9779 8.99219 76.4987 8.89062 77.082 8.89062C77.6758 8.89062 78.194 8.99219 78.6367 9.19531C79.082 9.39844 79.4284 9.68099 79.6758 10.043C79.9232 10.4049 80.0508 10.8242 80.0586 11.3008H78.4375ZM81.3057 17V9H84.5088C85.0973 9 85.5882 9.08724 85.9814 9.26172C86.3747 9.4362 86.6702 9.67839 86.8682 9.98828C87.0661 10.2956 87.165 10.6497 87.165 11.0508C87.165 11.3633 87.1025 11.638 86.9775 11.875C86.8525 12.1094 86.6807 12.3021 86.4619 12.4531C86.2458 12.6016 85.9984 12.707 85.7197 12.7695V12.8477C86.0244 12.8607 86.3096 12.9466 86.5752 13.1055C86.8434 13.2643 87.0609 13.487 87.2275 13.7734C87.3942 14.0573 87.4775 14.3958 87.4775 14.7891C87.4775 15.2135 87.3721 15.5924 87.1611 15.9258C86.9528 16.2565 86.6442 16.5182 86.2354 16.7109C85.8265 16.9036 85.3226 17 84.7236 17H81.3057ZM82.9971 15.6172H84.376C84.8473 15.6172 85.1911 15.5273 85.4072 15.3477C85.6234 15.1654 85.7314 14.9232 85.7314 14.6211C85.7314 14.3997 85.6781 14.2044 85.5713 14.0352C85.4645 13.8659 85.3122 13.7331 85.1143 13.6367C84.9189 13.5404 84.6859 13.4922 84.415 13.4922H82.9971V15.6172ZM82.9971 12.3477H84.251C84.4827 12.3477 84.6885 12.3073 84.8682 12.2266C85.0505 12.1432 85.1937 12.026 85.2979 11.875C85.4046 11.724 85.458 11.543 85.458 11.332C85.458 11.043 85.3551 10.8099 85.1494 10.6328C84.9463 10.4557 84.6572 10.3672 84.2822 10.3672H82.9971V12.3477ZM92.918 11.3008C92.8867 10.9857 92.7526 10.7409 92.5156 10.5664C92.2786 10.3919 91.957 10.3047 91.5508 10.3047C91.2747 10.3047 91.0417 10.3437 90.8516 10.4219C90.6615 10.4974 90.5156 10.6029 90.4141 10.7383C90.3151 10.8737 90.2656 11.0273 90.2656 11.1992C90.2604 11.3424 90.2904 11.4674 90.3555 11.5742C90.4232 11.681 90.5156 11.7734 90.6328 11.8516C90.75 11.9271 90.8854 11.9935 91.0391 12.0508C91.1927 12.1055 91.3568 12.1523 91.5313 12.1914L92.25 12.3633C92.599 12.4414 92.9193 12.5456 93.2109 12.6758C93.5026 12.806 93.7552 12.9661 93.9688 13.1562C94.1823 13.3464 94.3477 13.5703 94.4648 13.8281C94.5846 14.0859 94.6458 14.3815 94.6484 14.7148C94.6458 15.2044 94.5208 15.6289 94.2734 15.9883C94.0286 16.3451 93.6745 16.6224 93.2109 16.8203C92.75 17.0156 92.194 17.1133 91.543 17.1133C90.8971 17.1133 90.3346 17.0143 89.8555 16.8164C89.3789 16.6185 89.0065 16.3255 88.7383 15.9375C88.4727 15.5469 88.3333 15.0638 88.3203 14.4883H89.957C89.9753 14.7565 90.0521 14.9805 90.1875 15.1602C90.3255 15.3372 90.5091 15.4714 90.7383 15.5625C90.9701 15.651 91.2318 15.6953 91.5234 15.6953C91.8099 15.6953 92.0586 15.6536 92.2695 15.5703C92.4831 15.487 92.6484 15.3711 92.7656 15.2227C92.8828 15.0742 92.9414 14.9036 92.9414 14.7109C92.9414 14.5312 92.888 14.3802 92.7812 14.2578C92.6771 14.1354 92.5234 14.0312 92.3203 13.9453C92.1198 13.8594 91.8737 13.7812 91.582 13.7109L90.7109 13.4922C90.0365 13.3281 89.5039 13.0716 89.1133 12.7227C88.7227 12.3737 88.5286 11.9036 88.5313 11.3125C88.5286 10.8281 88.6576 10.4049 88.918 10.043C89.181 9.68099 89.5417 9.39844 90 9.19531C90.4583 8.99219 90.9792 8.89062 91.5625 8.89062C92.1563 8.89062 92.6745 8.99219 93.1172 9.19531C93.5625 9.39844 93.9089 9.68099 94.1562 10.043C94.4036 10.4049 94.5313 10.8242 94.5391 11.3008H92.918ZM103.138 13C103.138 13.8724 102.972 14.6146 102.642 15.2266C102.313 15.8385 101.866 16.306 101.298 16.6289C100.733 16.9492 100.097 17.1094 99.3916 17.1094C98.6807 17.1094 98.0426 16.9479 97.4775 16.625C96.9124 16.3021 96.4658 15.8346 96.1377 15.2227C95.8096 14.6107 95.6455 13.8698 95.6455 13C95.6455 12.1276 95.8096 11.3854 96.1377 10.7734C96.4658 10.1615 96.9124 9.69531 97.4775 9.375C98.0426 9.05208 98.6807 8.89062 99.3916 8.89062C100.097 8.89062 100.733 9.05208 101.298 9.375C101.866 9.69531 102.313 10.1615 102.642 10.7734C102.972 11.3854 103.138 12.1276 103.138 13ZM101.423 13C101.423 12.4349 101.338 11.9583 101.169 11.5703C101.002 11.1823 100.767 10.888 100.462 10.6875C100.157 10.487 99.8005 10.3867 99.3916 10.3867C98.9827 10.3867 98.626 10.487 98.3213 10.6875C98.0166 10.888 97.7796 11.1823 97.6104 11.5703C97.4437 11.9583 97.3604 12.4349 97.3604 13C97.3604 13.5651 97.4437 14.0417 97.6104 14.4297C97.7796 14.8177 98.0166 15.112 98.3213 15.3125C98.626 15.513 98.9827 15.6133 99.3916 15.6133C99.8005 15.6133 100.157 15.513 100.462 15.3125C100.767 15.112 101.002 14.8177 101.169 14.4297C101.338 14.0417 101.423 13.5651 101.423 13ZM111.449 11.8008H109.738C109.707 11.5794 109.643 11.3828 109.547 11.2109C109.451 11.0365 109.327 10.888 109.176 10.7656C109.025 10.6432 108.85 10.5495 108.652 10.4844C108.457 10.4193 108.245 10.3867 108.016 10.3867C107.602 10.3867 107.241 10.4896 106.934 10.6953C106.626 10.8984 106.388 11.1953 106.219 11.5859C106.049 11.974 105.965 12.4453 105.965 13C105.965 13.5703 106.049 14.0495 106.219 14.4375C106.391 14.8255 106.63 15.1185 106.937 15.3164C107.245 15.5143 107.6 15.6133 108.004 15.6133C108.23 15.6133 108.44 15.5833 108.633 15.5234C108.828 15.4635 109.001 15.3763 109.152 15.2617C109.303 15.1445 109.428 15.0026 109.527 14.8359C109.629 14.6693 109.699 14.4792 109.738 14.2656L111.449 14.2734C111.405 14.6406 111.294 14.9948 111.117 15.3359C110.943 15.6745 110.707 15.9779 110.41 16.2461C110.116 16.5117 109.764 16.7227 109.355 16.8789C108.949 17.0326 108.49 17.1094 107.977 17.1094C107.263 17.1094 106.625 16.9479 106.063 16.625C105.503 16.3021 105.06 15.8346 104.734 15.2227C104.411 14.6107 104.25 13.8698 104.25 13C104.25 12.1276 104.414 11.3854 104.742 10.7734C105.07 10.1615 105.516 9.69531 106.078 9.375C106.641 9.05208 107.273 8.89062 107.977 8.89062C108.44 8.89062 108.87 8.95573 109.266 9.08594C109.664 9.21615 110.017 9.40625 110.324 9.65625C110.632 9.90365 110.882 10.207 111.074 10.5664C111.27 10.9258 111.395 11.3372 111.449 11.8008ZM119.721 11.8008H118.01C117.979 11.5794 117.915 11.3828 117.818 11.2109C117.722 11.0365 117.598 10.888 117.447 10.7656C117.296 10.6432 117.122 10.5495 116.924 10.4844C116.729 10.4193 116.516 10.3867 116.287 10.3867C115.873 10.3867 115.512 10.4896 115.205 10.6953C114.898 10.8984 114.66 11.1953 114.49 11.5859C114.321 11.974 114.236 12.4453 114.236 13C114.236 13.5703 114.321 14.0495 114.49 14.4375C114.662 14.8255 114.902 15.1185 115.209 15.3164C115.516 15.5143 115.872 15.6133 116.275 15.6133C116.502 15.6133 116.712 15.5833 116.904 15.5234C117.1 15.4635 117.273 15.3763 117.424 15.2617C117.575 15.1445 117.7 15.0026 117.799 14.8359C117.9 14.6693 117.971 14.4792 118.01 14.2656L119.721 14.2734C119.676 14.6406 119.566 14.9948 119.389 15.3359C119.214 15.6745 118.979 15.9779 118.682 16.2461C118.387 16.5117 118.036 16.7227 117.627 16.8789C117.221 17.0326 116.761 17.1094 116.248 17.1094C115.535 17.1094 114.896 16.9479 114.334 16.625C113.774 16.3021 113.331 15.8346 113.006 15.2227C112.683 14.6107 112.521 13.8698 112.521 13C112.521 12.1276 112.686 11.3854 113.014 10.7734C113.342 10.1615 113.787 9.69531 114.35 9.375C114.912 9.05208 115.545 8.89062 116.248 8.89062C116.712 8.89062 117.141 8.95573 117.537 9.08594C117.936 9.21615 118.288 9.40625 118.596 9.65625C118.903 9.90365 119.153 10.207 119.346 10.5664C119.541 10.9258 119.666 11.3372 119.721 11.8008Z" fill="black"/>
</svg>
