<svg width="280" height="97" viewBox="0 0 280 97" fill="none" xmlns="http://www.w3.org/2000/svg">
<path d="M36.6193 36.5511C36.392 34.2595 35.4167 32.4792 33.6932 31.2102C31.9697 29.9413 29.6307 29.3068 26.6761 29.3068C24.6686 29.3068 22.9735 29.5909 21.5909 30.1591C20.2083 30.7083 19.1477 31.4754 18.4091 32.4602C17.6894 33.4451 17.3295 34.5625 17.3295 35.8125C17.2917 36.8542 17.5095 37.7633 17.983 38.5398C18.4754 39.3163 19.1477 39.9886 20 40.5568C20.8523 41.1061 21.8371 41.589 22.9545 42.0057C24.072 42.4034 25.2652 42.7443 26.5341 43.0284L31.7614 44.2784C34.2992 44.8466 36.6288 45.6042 38.75 46.5511C40.8712 47.4981 42.7083 48.6629 44.2614 50.0455C45.8144 51.428 47.017 53.0568 47.8693 54.9318C48.7405 56.8068 49.1856 58.9564 49.2045 61.3807C49.1856 64.9413 48.2765 68.0284 46.4773 70.642C44.697 73.2367 42.1212 75.2538 38.75 76.6932C35.3977 78.1136 31.3542 78.8239 26.6193 78.8239C21.9223 78.8239 17.8314 78.1042 14.3466 76.6648C10.8807 75.2254 8.17235 73.0947 6.22159 70.2727C4.28977 67.4318 3.27652 63.9186 3.18182 59.733H15.0852C15.2178 61.6837 15.7765 63.3125 16.7614 64.6193C17.7652 65.9072 19.1004 66.8826 20.767 67.5455C22.4527 68.1894 24.3561 68.5114 26.4773 68.5114C28.5606 68.5114 30.3693 68.2083 31.9034 67.6023C33.4564 66.9962 34.6591 66.1534 35.5114 65.0739C36.3636 63.9943 36.7898 62.7538 36.7898 61.3523C36.7898 60.0455 36.4015 58.947 35.625 58.0568C34.8674 57.1667 33.75 56.4091 32.2727 55.7841C30.8144 55.1591 29.0246 54.5909 26.9034 54.0795L20.5682 52.4886C15.6629 51.2955 11.7898 49.4299 8.94886 46.892C6.10795 44.3542 4.69697 40.9356 4.71591 36.6364C4.69697 33.1136 5.63447 30.036 7.52841 27.4034C9.44129 24.7708 12.0644 22.7159 15.3977 21.2386C18.7311 19.7614 22.5189 19.0227 26.7614 19.0227C31.0795 19.0227 34.8485 19.7614 38.0682 21.2386C41.3068 22.7159 43.8258 24.7708 45.625 27.4034C47.4242 30.036 48.3523 33.0852 48.4091 36.5511H36.6193ZM78.1537 52.7727V78H66.0514V19.8182H77.8128V42.0625H78.3241C79.309 39.4867 80.8999 37.4697 83.0969 36.0114C85.2938 34.5341 88.0495 33.7955 91.3639 33.7955C94.3942 33.7955 97.0363 34.4583 99.2901 35.7841C101.563 37.0909 103.324 38.9754 104.574 41.4375C105.843 43.8807 106.468 46.8068 106.449 50.2159V78H94.3469V52.375C94.3658 49.6856 93.684 47.5928 92.3014 46.0966C90.9378 44.6004 89.0249 43.8523 86.5628 43.8523C84.9151 43.8523 83.4567 44.2027 82.1878 44.9034C80.9378 45.6042 79.9529 46.6269 79.2332 47.9716C78.5325 49.2973 78.1726 50.8977 78.1537 52.7727ZM144.489 78.8523C140.076 78.8523 136.26 77.9148 133.04 76.0398C129.84 74.1458 127.368 71.5133 125.626 68.142C123.883 64.7519 123.012 60.822 123.012 56.3523C123.012 51.8447 123.883 47.9053 125.626 44.5341C127.368 41.1439 129.84 38.5114 133.04 36.6364C136.26 34.7424 140.076 33.7955 144.489 33.7955C148.902 33.7955 152.709 34.7424 155.91 36.6364C159.129 38.5114 161.61 41.1439 163.353 44.5341C165.095 47.9053 165.966 51.8447 165.966 56.3523C165.966 60.822 165.095 64.7519 163.353 68.142C161.61 71.5133 159.129 74.1458 155.91 76.0398C152.709 77.9148 148.902 78.8523 144.489 78.8523ZM144.546 69.4773C146.554 69.4773 148.23 68.9091 149.574 67.7727C150.919 66.6174 151.932 65.0455 152.614 63.0568C153.315 61.0682 153.665 58.8049 153.665 56.267C153.665 53.7292 153.315 51.4659 152.614 49.4773C151.932 47.4886 150.919 45.9167 149.574 44.7614C148.23 43.6061 146.554 43.0284 144.546 43.0284C142.52 43.0284 140.815 43.6061 139.432 44.7614C138.069 45.9167 137.037 47.4886 136.336 49.4773C135.654 51.4659 135.313 53.7292 135.313 56.267C135.313 58.8049 135.654 61.0682 136.336 63.0568C137.037 65.0455 138.069 66.6174 139.432 67.7727C140.815 68.9091 142.52 69.4773 144.546 69.4773ZM202.522 78.8523C198.034 78.8523 194.17 77.9432 190.931 76.125C187.712 74.2879 185.23 71.6932 183.488 68.3409C181.746 64.9697 180.874 60.983 180.874 56.3807C180.874 51.892 181.746 47.9527 183.488 44.5625C185.23 41.1723 187.683 38.5303 190.846 36.6364C194.028 34.7424 197.759 33.7955 202.039 33.7955C204.918 33.7955 207.598 34.2595 210.079 35.1875C212.579 36.0966 214.757 37.4697 216.613 39.3068C218.488 41.1439 219.946 43.4545 220.988 46.2386C222.03 49.0038 222.551 52.2424 222.551 55.9545V59.2784H185.704V51.7784H211.159C211.159 50.036 210.78 48.4924 210.022 47.1477C209.265 45.803 208.213 44.7519 206.869 43.9943C205.543 43.2178 203.999 42.8295 202.238 42.8295C200.401 42.8295 198.772 43.2557 197.352 44.108C195.95 44.9413 194.852 46.0682 194.056 47.4886C193.261 48.8902 192.854 50.4527 192.835 52.1761V59.3068C192.835 61.4659 193.232 63.3314 194.028 64.9034C194.842 66.4754 195.988 67.6875 197.465 68.5398C198.943 69.392 200.695 69.8182 202.721 69.8182C204.066 69.8182 205.297 69.6288 206.414 69.25C207.532 68.8712 208.488 68.303 209.284 67.5455C210.079 66.7879 210.685 65.8598 211.102 64.7614L222.295 65.5C221.727 68.1894 220.562 70.5379 218.801 72.5455C217.058 74.5341 214.804 76.0871 212.039 77.2045C209.293 78.303 206.121 78.8523 202.522 78.8523ZM275.555 46.8068L264.476 47.4886C264.286 46.5417 263.879 45.6894 263.254 44.9318C262.629 44.1553 261.805 43.5398 260.782 43.0852C259.779 42.6117 258.576 42.375 257.174 42.375C255.299 42.375 253.718 42.7727 252.43 43.5682C251.142 44.3447 250.498 45.3864 250.498 46.6932C250.498 47.7348 250.915 48.6155 251.748 49.3352C252.582 50.0549 254.012 50.6326 256.038 51.0682L263.936 52.6591C268.178 53.5303 271.341 54.9318 273.424 56.8636C275.508 58.7955 276.549 61.3333 276.549 64.4773C276.549 67.3371 275.707 69.8466 274.021 72.0057C272.354 74.1648 270.063 75.8504 267.146 77.0625C264.248 78.2557 260.905 78.8523 257.118 78.8523C251.341 78.8523 246.739 77.6496 243.311 75.2443C239.902 72.8201 237.904 69.5246 237.316 65.358L249.22 64.733C249.58 66.4943 250.451 67.839 251.834 68.767C253.216 69.6761 254.987 70.1307 257.146 70.1307C259.267 70.1307 260.972 69.7235 262.26 68.9091C263.566 68.0758 264.229 67.0057 264.248 65.6989C264.229 64.6004 263.765 63.7008 262.856 63C261.947 62.2803 260.546 61.7311 258.652 61.3523L251.095 59.8466C246.834 58.9943 243.661 57.517 241.578 55.4148C239.513 53.3125 238.481 50.6326 238.481 47.375C238.481 44.572 239.239 42.1572 240.754 40.1307C242.288 38.1042 244.438 36.5417 247.203 35.4432C249.987 34.3447 253.245 33.7955 256.976 33.7955C262.487 33.7955 266.824 34.9602 269.987 37.2898C273.169 39.6193 275.025 42.7917 275.555 46.8068Z" fill="white"/>
</svg>
